<svg width="23" height="25" viewBox="0 0 23 25" fill="none" xmlns="http://www.w3.org/2000/svg">
<path d="M0.188143 17.5948C-0.212422 16.9223 0.0642039 16.051 0.779291 15.7327L7.11277 12.9137C7.49559 12.7434 7.93691 12.7669 8.29939 12.9772L11.9184 15.076C12.279 15.2851 12.5181 15.6537 12.5622 16.0682L13.3011 23.0275C13.3835 23.8035 12.7716 24.4782 11.9913 24.4718L9.06359 24.4477C8.27571 24.4413 7.6728 23.744 7.7801 22.9635L8.36554 18.7044C8.41357 18.3551 8.24509 18.0114 7.93949 17.8355C7.63349 17.6592 7.25116 17.6863 6.97305 17.9039L3.63888 20.5125C3.01903 20.9975 2.11427 20.8283 1.7115 20.1522L0.188143 17.5948Z" fill="white"/>
<path fill-rule="evenodd" clip-rule="evenodd" d="M13.9419 14.8855L19.5387 19.0025C19.8556 19.2356 20.3051 19.1377 20.4965 18.794L21.9469 16.1885C22.1379 15.8454 21.9851 15.4126 21.6211 15.2653L17.6556 13.6611C17.0813 13.4287 16.7054 12.8712 16.7054 12.2517C16.7054 11.6361 17.0766 11.0813 17.6456 10.8464L21.625 9.2037C21.9872 9.05417 22.1372 8.62156 21.9452 8.27992L20.5 5.70813C20.3078 5.36608 19.8596 5.26946 19.5435 5.50194L13.9419 9.62228C13.7745 9.74538 13.6757 9.94073 13.6757 10.1485V14.3593C13.6757 14.5671 13.7745 14.7624 13.9419 14.8855ZM13.5548 15.4117C13.2201 15.1655 13.0225 14.7748 13.0225 14.3593V10.1485C13.0225 9.73299 13.2202 9.34228 13.5548 9.0961L19.1565 4.97575C19.7886 4.5108 20.6851 4.70405 21.0695 5.38813L22.5147 7.95993C22.8986 8.6432 22.5987 9.50842 21.8742 9.80748L17.8949 11.4502C17.5703 11.5841 17.3586 11.9006 17.3586 12.2517C17.3586 12.605 17.573 12.923 17.9006 13.0555L21.8661 14.6598C22.5941 14.9543 22.8996 15.82 22.5176 16.5062L21.0672 19.1117C20.6845 19.7992 19.7855 19.9949 19.1517 19.5286L13.5548 15.4117Z" fill="#2DEBFC"/>
<path d="M11.9185 9.38375C12.2791 9.17465 12.5182 8.80605 12.5622 8.39158L13.2999 1.44435C13.3827 0.664014 12.7638 -0.0127738 11.9792 0.000183035L9.05117 0.0485359C8.26771 0.0614737 7.6718 0.756401 7.77851 1.53267L8.36542 5.80245C8.41357 6.15273 8.24461 6.49724 7.93818 6.67362C7.63275 6.84942 7.25137 6.82327 6.97279 6.60742L3.59287 3.98858C2.97152 3.50715 2.0688 3.67945 1.66846 4.35588L0.182533 6.86653C-0.215377 7.53885 0.0618353 8.40778 0.775578 8.72545L7.11286 11.546C7.49568 11.7164 7.937 11.6928 8.29948 11.4826L11.9185 9.38375Z" fill="#2C85FC"/>
</svg>
